<?xml version="1.0" encoding="UTF-8"?>
<svg version="1.1" xmlns="http://www.w3.org/2000/svg" width="100" height="100">
<path d="M0 0 C1.20591797 -0.01546875 2.41183594 -0.0309375 3.65429688 -0.046875 C14.55007836 0.00125656 14.55007836 0.00125656 19.4375 4.5 C23.88941605 9.18622742 23.8790208 13.43833748 23.87109375 19.59765625 C23.4375 22.5 23.4375 22.5 21.78515625 25.12109375 C21.34042969 25.90613281 20.89570312 26.69117187 20.4375 27.5 C21.00883278 29.60801943 21.00883278 29.60801943 22.4375 31.5 C25.9759962 37.70845242 29.03782722 43.1903973 27.4375 50.5 C25.64356332 53.37029869 24.45486724 54.99131638 21.4375 56.5 C19.61195387 56.61642843 17.78223287 56.66966192 15.953125 56.69287109 C14.22993042 56.71696548 14.22993042 56.71696548 12.47192383 56.74154663 C7.19074987 56.78605043 1.90972596 56.82754031 -3.37158203 56.85009766 C-6.15154368 56.86337683 -8.93076074 56.8911124 -11.71044922 56.93212891 C-15.72375656 56.9913406 -19.7362779 57.00881197 -23.75 57.0234375 C-24.98266602 57.04610687 -26.21533203 57.06877625 -27.48535156 57.09213257 C-37.33327254 57.06822575 -43.83280964 54.4750922 -51.5625 48.5 C-52.0265625 49.675625 -52.0265625 49.675625 -52.5 50.875 C-53.5625 53.5 -53.5625 53.5 -54.5625 55.5 C-55.17743604 60.46341236 -55.29844779 64.27342035 -52.6875 68.625 C-48.12279732 71.36382161 -44.76296321 71.50192411 -39.5625 70.5 C-37.17455151 69.54426975 -34.84235444 68.55435042 -32.5 67.5 C-22.62858757 63.13309264 -11.92049034 62.58259488 -1.625 66.1875 C1.33910036 67.4229655 2.22720097 68.12527453 3.81640625 70.95703125 C4.02136719 71.79621094 4.22632812 72.63539062 4.4375 73.5 C3.7775 74.49 3.1175 75.48 2.4375 76.5 C-0.7089426 76.84960473 -2.93017956 76.75634613 -5.875 75.5625 C-13.58436669 72.51461085 -19.98923099 73.58810742 -27.5625 76.5 C-28.34238281 76.8609375 -29.12226562 77.221875 -29.92578125 77.59375 C-37.46076827 81.04677188 -45.7501162 82.27767065 -53.8359375 79.8046875 C-58.83826317 77.20522569 -62.78830764 72.82257707 -64.5625 67.5 C-65.38683151 60.34188083 -65.04888215 54.74901522 -61.6875 48.3125 C-58.8460237 42.85474599 -57.95913259 38.34086737 -57.5 32.3125 C-56.77412347 23.36809848 -54.99186992 16.37756691 -48.1875 10.0625 C-41.40434177 4.46555909 -35.21400639 4.16083635 -26.87890625 4.70507812 C-22.02161654 4.8851404 -19.83416153 4.11354111 -15.67041016 1.42358398 C-10.82752366 -0.69833397 -5.18901641 -0.06677555 0 0 Z M6.4375 9.5 C6.49594462 15.55602241 6.49594462 15.55602241 9.375 20.5625 C11.36336031 21.63793431 11.36336031 21.63793431 13.4375 21.5 C14.85791821 18.65916359 14.75202272 16.64522722 14.4375 13.5 C12.81169918 11.04047777 12.81169918 11.04047777 10.4375 9.5 C9.1175 9.5 7.7975 9.5 6.4375 9.5 Z M-13.9375 11.125 C-16.02726653 14.17927416 -16.01726766 15.86185869 -15.5625 19.5 C-15.211875 20.20125 -14.86125 20.9025 -14.5 21.625 C-13.5625 23.5 -13.5625 23.5 -13.9375 25.75 C-14.14375 26.3275 -14.35 26.905 -14.5625 27.5 C-16.3125 28.25 -16.3125 28.25 -18.5625 28.5 C-21.3531735 26.77634872 -22.37646214 25.1935139 -23.22265625 22.0390625 C-23.56931634 20.24670142 -23.8854169 18.44810989 -24.16796875 16.64453125 C-24.34816987 14.52516476 -24.34816987 14.52516476 -25.5625 13.5 C-30.80590309 12.95511484 -35.22207665 12.84197399 -40 15.1875 C-43.76528052 18.58543608 -47.3239198 21.88735127 -47.80078125 27.109375 C-48.00421646 35.52940455 -48.00421646 35.52940455 -43.5625 42.5 C-38.79302513 47.26947487 -33.62152188 48.39074922 -27.0625 48.625 C-26.2375 48.58375 -25.4125 48.5425 -24.5625 48.5 C-24.82906572 45.56556598 -24.82906572 45.56556598 -25.5625 42.5 C-29.00700737 40.20366176 -31.50062283 39.95983515 -35.5625 39.5 C-36.6875 35.75 -36.6875 35.75 -35.5625 33.5 C-24.62963165 32.8722755 -24.62963165 32.8722755 -20.375 35.375 C-17.83113858 38.35745822 -17.3830587 40.29441303 -17 44.125 C-16.87431641 45.35089844 -16.87431641 45.35089844 -16.74609375 46.6015625 C-16.68550781 47.22804687 -16.62492187 47.85453125 -16.5625 48.5 C-11.89941801 48.52468646 -7.23637392 48.54285349 -2.57324219 48.55493164 C-0.98632139 48.55996588 0.60059477 48.56679369 2.1875 48.57543945 C4.46615749 48.58754482 6.74475376 48.59323733 9.0234375 48.59765625 C9.73494965 48.60281754 10.44646179 48.60797882 11.17953491 48.61329651 C14.93343556 48.67314758 14.93343556 48.67314758 18.4375 47.5 C18.08858191 40.69609723 14.32695397 35.43390711 9.66015625 30.6953125 C7.02348577 28.3759656 4.80240596 26.65865477 1.5625 25.25 C-0.5625 23.5 -0.5625 23.5 -0.94921875 21.23828125 C-1.0663686 19.45500019 -1.17444992 17.67110013 -1.2734375 15.88671875 C-1.40835638 13.32072397 -1.40835638 13.32072397 -3.25 10.875 C-7.20496923 8.52339667 -10.13143214 8.52084831 -13.9375 11.125 Z " fill="#000000" transform="translate(64.5625,15.5)"/>
<path d="M0 0 C3 0.125 3 0.125 4 1.125 C4.125 4.125 4.125 4.125 4 7.125 C3 8.125 3 8.125 0 8.25 C-3 8.125 -3 8.125 -4 7.125 C-4.125 4.125 -4.125 4.125 -4 1.125 C-3 0.125 -3 0.125 0 0 Z " fill="#000000" transform="translate(68,47.875)"/>
</svg> 